<svg width="36" height="36" viewBox="0 0 36 36" fill="none" xmlns="http://www.w3.org/2000/svg">
<path d="M0 18C0 9.51472 0 5.27208 2.63604 2.63604C5.27208 0 9.51472 0 18 0V0C26.4853 0 30.7279 0 33.364 2.63604C36 5.27208 36 9.51472 36 18V18C36 26.4853 36 30.7279 33.364 33.364C30.7279 36 26.4853 36 18 36V36C9.51472 36 5.27208 36 2.63604 33.364C0 30.7279 0 26.4853 0 18V18Z" fill="#005FF9"/>
<path fill-rule="evenodd" clip-rule="evenodd" d="M12.2864 16.8763C12.199 16.8718 12.111 16.8695 12.0226 16.8695C9.22548 16.8695 6.95459 19.1395 6.95459 21.9356C6.95459 21.9384 6.95459 21.9413 6.9546 21.9441C6.95553 24.7392 9.22606 27.0083 12.0226 27.0083H22.1586C24.9558 27.0083 27.2267 24.7383 27.2267 21.9424C27.2267 19.1463 24.9558 16.8763 22.1586 16.8763H12.2864Z" fill="#FFBE3F"/>
<path fill-rule="evenodd" clip-rule="evenodd" d="M17.1987 9C20.985 9 24.0591 12.0727 24.0591 15.8576C24.0591 19.6425 20.985 22.7152 17.1987 22.7152C13.4123 22.7152 10.3384 19.6425 10.3384 15.8576C10.3384 12.0727 13.4123 9 17.1987 9Z" fill="#F3A23A"/>
<mask id="mask0_3904_37771" style="mask-type:alpha" maskUnits="userSpaceOnUse" x="10" y="9" width="15" height="14">
<path d="M17.1992 9C20.9855 9 24.0595 12.0727 24.0595 15.8576C24.0595 19.6425 20.9855 22.7152 17.1992 22.7152C13.4128 22.7152 10.3389 19.6425 10.3389 15.8576C10.3389 12.0727 13.4128 9 17.1992 9Z" fill="white"/>
</mask>
<g mask="url(#mask0_3904_37771)">
<path fill-rule="evenodd" clip-rule="evenodd" d="M12.0226 16.876C14.8198 16.876 17.0907 19.146 17.0907 21.9421C17.0907 24.738 14.8198 27.008 12.0226 27.008C9.22548 27.008 6.95459 24.738 6.95459 21.9421C6.95459 19.146 9.22548 16.876 12.0226 16.876Z" fill="#FFCF38"/>
</g>
<path fill-rule="evenodd" clip-rule="evenodd" d="M22.1587 13.0767C26.0049 13.0767 29.1273 16.1979 29.1273 20.0423C29.1273 23.8869 26.0049 27.0081 22.1587 27.0081C18.3128 27.0081 15.1903 23.8869 15.1903 20.0423C15.1903 16.1979 18.3128 13.0767 22.1587 13.0767Z" fill="#F3823A"/>
<mask id="mask1_3904_37771" style="mask-type:alpha" maskUnits="userSpaceOnUse" x="15" y="13" width="15" height="15">
<path d="M22.1584 13.0767C26.0045 13.0767 29.1269 16.1979 29.1269 20.0423C29.1269 23.8869 26.0045 27.0081 22.1584 27.0081C18.3124 27.0081 15.1899 23.8869 15.1899 20.0423C15.1899 16.1979 18.3124 13.0767 22.1584 13.0767Z" fill="white"/>
</mask>
<g mask="url(#mask1_3904_37771)">
<path fill-rule="evenodd" clip-rule="evenodd" d="M17.1992 9C20.9855 9 24.0595 12.0727 24.0595 15.8576C24.0595 19.6425 20.9855 22.7152 17.1992 22.7152C13.4128 22.7152 10.3389 19.6425 10.3389 15.8576C10.3389 12.0727 13.4128 9 17.1992 9Z" fill="#F26C32"/>
</g>
</svg>
